<?xml version="1.0" encoding="utf-8"?><svg xmlns="http://www.w3.org/2000/svg" version="1.1" xmlns:xlink="http://www.w3.org/1999/xlink" viewBox="0 0 216 216"><rect width="216" height="216" fill="#FFFFFF"></rect><path shape-rendering="geometricPrecision" d="M 8 8 L 8 16 L 16 16 L 16 8 L 8 8 z M 8 16 L 8 24 L 16 24 L 16 16 L 8 16 z M 8 24 L 8 32 L 16 32 L 16 24 L 8 24 z M 8 32 L 8 40 L 16 40 L 16 32 L 8 32 z M 8 40 L 8 48 L 16 48 L 16 40 L 8 40 z M 8 48 L 8 56 L 16 56 L 16 48 L 8 48 z M 8 56 L 8 64 L 16 64 L 16 56 L 8 56 z M 8 80 L 8 88 L 16 88 L 16 80 L 8 80 z M 8 96 L 8 104 L 16 104 L 16 96 L 8 96 z M 8 120 L 8 128 L 16 128 L 16 120 L 8 120 z M 8 136 L 8 144 L 16 144 L 16 136 L 8 136 z M 8 152 L 8 160 L 16 160 L 16 152 L 8 152 z M 8 160 L 8 168 L 16 168 L 16 160 L 8 160 z M 8 168 L 8 176 L 16 176 L 16 168 L 8 168 z M 8 176 L 8 184 L 16 184 L 16 176 L 8 176 z M 8 184 L 8 192 L 16 192 L 16 184 L 8 184 z M 8 192 L 8 200 L 16 200 L 16 192 L 8 192 z M 8 200 L 8 208 L 16 208 L 16 200 L 8 200 z M 16 8 L 16 16 L 24 16 L 24 8 L 16 8 z M 16 56 L 16 64 L 24 64 L 24 56 L 16 56 z M 16 80 L 16 88 L 24 88 L 24 80 L 16 80 z M 16 88 L 16 96 L 24 96 L 24 88 L 16 88 z M 16 96 L 16 104 L 24 104 L 24 96 L 16 96 z M 16 112 L 16 120 L 24 120 L 24 112 L 16 112 z M 16 128 L 16 136 L 24 136 L 24 128 L 16 128 z M 16 152 L 16 160 L 24 160 L 24 152 L 16 152 z M 16 200 L 16 208 L 24 208 L 24 200 L 16 200 z M 24 8 L 24 16 L 32 16 L 32 8 L 24 8 z M 24 24 L 24 32 L 32 32 L 32 24 L 24 24 z M 24 32 L 24 40 L 32 40 L 32 32 L 24 32 z M 24 40 L 24 48 L 32 48 L 32 40 L 24 40 z M 24 56 L 24 64 L 32 64 L 32 56 L 24 56 z M 24 72 L 24 80 L 32 80 L 32 72 L 24 72 z M 24 96 L 24 104 L 32 104 L 32 96 L 24 96 z M 24 128 L 24 136 L 32 136 L 32 128 L 24 128 z M 24 152 L 24 160 L 32 160 L 32 152 L 24 152 z M 24 168 L 24 176 L 32 176 L 32 168 L 24 168 z M 24 176 L 24 184 L 32 184 L 32 176 L 24 176 z M 24 184 L 24 192 L 32 192 L 32 184 L 24 184 z M 24 200 L 24 208 L 32 208 L 32 200 L 24 200 z M 32 8 L 32 16 L 40 16 L 40 8 L 32 8 z M 32 24 L 32 32 L 40 32 L 40 24 L 32 24 z M 32 32 L 32 40 L 40 40 L 40 32 L 32 32 z M 32 40 L 32 48 L 40 48 L 40 40 L 32 40 z M 32 56 L 32 64 L 40 64 L 40 56 L 32 56 z M 32 72 L 32 80 L 40 80 L 40 72 L 32 72 z M 32 80 L 32 88 L 40 88 L 40 80 L 32 80 z M 32 88 L 32 96 L 40 96 L 40 88 L 32 88 z M 32 104 L 32 112 L 40 112 L 40 104 L 32 104 z M 32 120 L 32 128 L 40 128 L 40 120 L 32 120 z M 32 136 L 32 144 L 40 144 L 40 136 L 32 136 z M 32 152 L 32 160 L 40 160 L 40 152 L 32 152 z M 32 168 L 32 176 L 40 176 L 40 168 L 32 168 z M 32 176 L 32 184 L 40 184 L 40 176 L 32 176 z M 32 184 L 32 192 L 40 192 L 40 184 L 32 184 z M 32 200 L 32 208 L 40 208 L 40 200 L 32 200 z M 40 8 L 40 16 L 48 16 L 48 8 L 40 8 z M 40 24 L 40 32 L 48 32 L 48 24 L 40 24 z M 40 32 L 40 40 L 48 40 L 48 32 L 40 32 z M 40 40 L 40 48 L 48 48 L 48 40 L 40 40 z M 40 56 L 40 64 L 48 64 L 48 56 L 40 56 z M 40 72 L 40 80 L 48 80 L 48 72 L 40 72 z M 40 88 L 40 96 L 48 96 L 48 88 L 40 88 z M 40 120 L 40 128 L 48 128 L 48 120 L 40 120 z M 40 152 L 40 160 L 48 160 L 48 152 L 40 152 z M 40 168 L 40 176 L 48 176 L 48 168 L 40 168 z M 40 176 L 40 184 L 48 184 L 48 176 L 40 176 z M 40 184 L 40 192 L 48 192 L 48 184 L 40 184 z M 40 200 L 40 208 L 48 208 L 48 200 L 40 200 z M 48 8 L 48 16 L 56 16 L 56 8 L 48 8 z M 48 56 L 48 64 L 56 64 L 56 56 L 48 56 z M 48 72 L 48 80 L 56 80 L 56 72 L 48 72 z M 48 104 L 48 112 L 56 112 L 56 104 L 48 104 z M 48 128 L 48 136 L 56 136 L 56 128 L 48 128 z M 48 136 L 48 144 L 56 144 L 56 136 L 48 136 z M 48 152 L 48 160 L 56 160 L 56 152 L 48 152 z M 48 200 L 48 208 L 56 208 L 56 200 L 48 200 z M 56 8 L 56 16 L 64 16 L 64 8 L 56 8 z M 56 16 L 56 24 L 64 24 L 64 16 L 56 16 z M 56 24 L 56 32 L 64 32 L 64 24 L 56 24 z M 56 32 L 56 40 L 64 40 L 64 32 L 56 32 z M 56 40 L 56 48 L 64 48 L 64 40 L 56 40 z M 56 48 L 56 56 L 64 56 L 64 48 L 56 48 z M 56 56 L 56 64 L 64 64 L 64 56 L 56 56 z M 56 72 L 56 80 L 64 80 L 64 72 L 56 72 z M 56 88 L 56 96 L 64 96 L 64 88 L 56 88 z M 56 104 L 56 112 L 64 112 L 64 104 L 56 104 z M 56 120 L 56 128 L 64 128 L 64 120 L 56 120 z M 56 136 L 56 144 L 64 144 L 64 136 L 56 136 z M 56 152 L 56 160 L 64 160 L 64 152 L 56 152 z M 56 160 L 56 168 L 64 168 L 64 160 L 56 160 z M 56 168 L 56 176 L 64 176 L 64 168 L 56 168 z M 56 176 L 56 184 L 64 184 L 64 176 L 56 176 z M 56 184 L 56 192 L 64 192 L 64 184 L 56 184 z M 56 192 L 56 200 L 64 200 L 64 192 L 56 192 z M 56 200 L 56 208 L 64 208 L 64 200 L 56 200 z M 64 72 L 64 80 L 72 80 L 72 72 L 64 72 z M 64 88 L 64 96 L 72 96 L 72 88 L 64 88 z M 64 96 L 64 104 L 72 104 L 72 96 L 64 96 z M 64 128 L 64 136 L 72 136 L 72 128 L 64 128 z M 64 136 L 64 144 L 72 144 L 72 136 L 64 136 z M 72 8 L 72 16 L 80 16 L 80 8 L 72 8 z M 72 24 L 72 32 L 80 32 L 80 24 L 72 24 z M 72 32 L 72 40 L 80 40 L 80 32 L 72 32 z M 72 40 L 72 48 L 80 48 L 80 40 L 72 40 z M 72 48 L 72 56 L 80 56 L 80 48 L 72 48 z M 72 56 L 72 64 L 80 64 L 80 56 L 72 56 z M 72 80 L 72 88 L 80 88 L 80 80 L 72 80 z M 72 96 L 72 104 L 80 104 L 80 96 L 72 96 z M 72 104 L 72 112 L 80 112 L 80 104 L 72 104 z M 72 120 L 72 128 L 80 128 L 80 120 L 72 120 z M 72 128 L 72 136 L 80 136 L 80 128 L 72 128 z M 72 136 L 72 144 L 80 144 L 80 136 L 72 136 z M 72 152 L 72 160 L 80 160 L 80 152 L 72 152 z M 72 160 L 72 168 L 80 168 L 80 160 L 72 160 z M 72 168 L 72 176 L 80 176 L 80 168 L 72 168 z M 72 176 L 72 184 L 80 184 L 80 176 L 72 176 z M 72 184 L 72 192 L 80 192 L 80 184 L 72 184 z M 80 32 L 80 40 L 88 40 L 88 32 L 80 32 z M 80 48 L 80 56 L 88 56 L 88 48 L 80 48 z M 80 80 L 80 88 L 88 88 L 88 80 L 80 80 z M 80 96 L 80 104 L 88 104 L 88 96 L 80 96 z M 80 104 L 80 112 L 88 112 L 88 104 L 80 104 z M 80 112 L 80 120 L 88 120 L 88 112 L 80 112 z M 80 136 L 80 144 L 88 144 L 88 136 L 80 136 z M 80 144 L 80 152 L 88 152 L 88 144 L 80 144 z M 80 160 L 80 168 L 88 168 L 88 160 L 80 160 z M 80 192 L 80 200 L 88 200 L 88 192 L 80 192 z M 88 8 L 88 16 L 96 16 L 96 8 L 88 8 z M 88 16 L 88 24 L 96 24 L 96 16 L 88 16 z M 88 32 L 88 40 L 96 40 L 96 32 L 88 32 z M 88 48 L 88 56 L 96 56 L 96 48 L 88 48 z M 88 56 L 88 64 L 96 64 L 96 56 L 88 56 z M 88 72 L 88 80 L 96 80 L 96 72 L 88 72 z M 88 80 L 88 88 L 96 88 L 96 80 L 88 80 z M 88 88 L 88 96 L 96 96 L 96 88 L 88 88 z M 88 96 L 88 104 L 96 104 L 96 96 L 88 96 z M 88 104 L 88 112 L 96 112 L 96 104 L 88 104 z M 88 112 L 88 120 L 96 120 L 96 112 L 88 112 z M 88 120 L 88 128 L 96 128 L 96 120 L 88 120 z M 88 128 L 88 136 L 96 136 L 96 128 L 88 128 z M 88 136 L 88 144 L 96 144 L 96 136 L 88 136 z M 88 152 L 88 160 L 96 160 L 96 152 L 88 152 z M 88 160 L 88 168 L 96 168 L 96 160 L 88 160 z M 88 168 L 88 176 L 96 176 L 96 168 L 88 168 z M 88 176 L 88 184 L 96 184 L 96 176 L 88 176 z M 88 192 L 88 200 L 96 200 L 96 192 L 88 192 z M 88 200 L 88 208 L 96 208 L 96 200 L 88 200 z M 96 8 L 96 16 L 104 16 L 104 8 L 96 8 z M 96 32 L 96 40 L 104 40 L 104 32 L 96 32 z M 96 64 L 96 72 L 104 72 L 104 64 L 96 64 z M 96 72 L 96 80 L 104 80 L 104 72 L 96 72 z M 96 80 L 96 88 L 104 88 L 104 80 L 96 80 z M 96 96 L 96 104 L 104 104 L 104 96 L 96 96 z M 96 104 L 96 112 L 104 112 L 104 104 L 96 104 z M 96 120 L 96 128 L 104 128 L 104 120 L 96 120 z M 96 136 L 96 144 L 104 144 L 104 136 L 96 136 z M 96 160 L 96 168 L 104 168 L 104 160 L 96 160 z M 96 200 L 96 208 L 104 208 L 104 200 L 96 200 z M 104 16 L 104 24 L 112 24 L 112 16 L 104 16 z M 104 32 L 104 40 L 112 40 L 112 32 L 104 32 z M 104 40 L 104 48 L 112 48 L 112 40 L 104 40 z M 104 48 L 104 56 L 112 56 L 112 48 L 104 48 z M 104 56 L 104 64 L 112 64 L 112 56 L 104 56 z M 104 72 L 104 80 L 112 80 L 112 72 L 104 72 z M 104 88 L 104 96 L 112 96 L 112 88 L 104 88 z M 104 104 L 104 112 L 112 112 L 112 104 L 104 104 z M 104 112 L 104 120 L 112 120 L 112 112 L 104 112 z M 104 120 L 104 128 L 112 128 L 112 120 L 104 120 z M 104 144 L 104 152 L 112 152 L 112 144 L 104 144 z M 104 152 L 104 160 L 112 160 L 112 152 L 104 152 z M 104 160 L 104 168 L 112 168 L 112 160 L 104 160 z M 104 168 L 104 176 L 112 176 L 112 168 L 104 168 z M 104 184 L 104 192 L 112 192 L 112 184 L 104 184 z M 104 192 L 104 200 L 112 200 L 112 192 L 104 192 z M 104 200 L 104 208 L 112 208 L 112 200 L 104 200 z M 112 8 L 112 16 L 120 16 L 120 8 L 112 8 z M 112 16 L 112 24 L 120 24 L 120 16 L 112 16 z M 112 40 L 112 48 L 120 48 L 120 40 L 112 40 z M 112 48 L 112 56 L 120 56 L 120 48 L 112 48 z M 112 64 L 112 72 L 120 72 L 120 64 L 112 64 z M 112 72 L 112 80 L 120 80 L 120 72 L 112 72 z M 112 88 L 112 96 L 120 96 L 120 88 L 112 88 z M 112 112 L 112 120 L 120 120 L 120 112 L 112 112 z M 112 160 L 112 168 L 120 168 L 120 160 L 112 160 z M 112 176 L 112 184 L 120 184 L 120 176 L 112 176 z M 112 192 L 112 200 L 120 200 L 120 192 L 112 192 z M 120 8 L 120 16 L 128 16 L 128 8 L 120 8 z M 120 40 L 120 48 L 128 48 L 128 40 L 120 40 z M 120 56 L 120 64 L 128 64 L 128 56 L 120 56 z M 120 64 L 120 72 L 128 72 L 128 64 L 120 64 z M 120 72 L 120 80 L 128 80 L 128 72 L 120 72 z M 120 96 L 120 104 L 128 104 L 128 96 L 120 96 z M 120 104 L 120 112 L 128 112 L 128 104 L 120 104 z M 120 120 L 120 128 L 128 128 L 128 120 L 120 120 z M 120 128 L 120 136 L 128 136 L 128 128 L 120 128 z M 120 136 L 120 144 L 128 144 L 128 136 L 120 136 z M 120 144 L 120 152 L 128 152 L 128 144 L 120 144 z M 120 160 L 120 168 L 128 168 L 128 160 L 120 160 z M 120 168 L 120 176 L 128 176 L 128 168 L 120 168 z M 120 176 L 120 184 L 128 184 L 128 176 L 120 176 z M 120 192 L 120 200 L 128 200 L 128 192 L 120 192 z M 120 200 L 120 208 L 128 208 L 128 200 L 120 200 z M 128 8 L 128 16 L 136 16 L 136 8 L 128 8 z M 128 24 L 128 32 L 136 32 L 136 24 L 128 24 z M 128 32 L 128 40 L 136 40 L 136 32 L 128 32 z M 128 48 L 128 56 L 136 56 L 136 48 L 128 48 z M 128 64 L 128 72 L 136 72 L 136 64 L 128 64 z M 128 80 L 128 88 L 136 88 L 136 80 L 128 80 z M 128 88 L 128 96 L 136 96 L 136 88 L 128 88 z M 128 96 L 128 104 L 136 104 L 136 96 L 128 96 z M 128 120 L 128 128 L 136 128 L 136 120 L 128 120 z M 128 128 L 128 136 L 136 136 L 136 128 L 128 128 z M 128 152 L 128 160 L 136 160 L 136 152 L 128 152 z M 128 160 L 128 168 L 136 168 L 136 160 L 128 160 z M 128 168 L 128 176 L 136 176 L 136 168 L 128 168 z M 128 200 L 128 208 L 136 208 L 136 200 L 128 200 z M 136 8 L 136 16 L 144 16 L 144 8 L 136 8 z M 136 32 L 136 40 L 144 40 L 144 32 L 136 32 z M 136 40 L 136 48 L 144 48 L 144 40 L 136 40 z M 136 48 L 136 56 L 144 56 L 144 48 L 136 48 z M 136 56 L 136 64 L 144 64 L 144 56 L 136 56 z M 136 64 L 136 72 L 144 72 L 144 64 L 136 64 z M 136 72 L 136 80 L 144 80 L 144 72 L 136 72 z M 136 80 L 136 88 L 144 88 L 144 80 L 136 80 z M 136 96 L 136 104 L 144 104 L 144 96 L 136 96 z M 136 136 L 136 144 L 144 144 L 144 136 L 136 136 z M 136 144 L 136 152 L 144 152 L 144 144 L 136 144 z M 136 152 L 136 160 L 144 160 L 144 152 L 136 152 z M 136 160 L 136 168 L 144 168 L 144 160 L 136 160 z M 136 168 L 136 176 L 144 176 L 144 168 L 136 168 z M 136 184 L 136 192 L 144 192 L 144 184 L 136 184 z M 144 72 L 144 80 L 152 80 L 152 72 L 144 72 z M 144 80 L 144 88 L 152 88 L 152 80 L 144 80 z M 144 104 L 144 112 L 152 112 L 152 104 L 144 104 z M 144 112 L 144 120 L 152 120 L 152 112 L 144 112 z M 144 128 L 144 136 L 152 136 L 152 128 L 144 128 z M 144 136 L 144 144 L 152 144 L 152 136 L 144 136 z M 144 168 L 144 176 L 152 176 L 152 168 L 144 168 z M 144 176 L 144 184 L 152 184 L 152 176 L 144 176 z M 152 8 L 152 16 L 160 16 L 160 8 L 152 8 z M 152 16 L 152 24 L 160 24 L 160 16 L 152 16 z M 152 24 L 152 32 L 160 32 L 160 24 L 152 24 z M 152 32 L 152 40 L 160 40 L 160 32 L 152 32 z M 152 40 L 152 48 L 160 48 L 160 40 L 152 40 z M 152 48 L 152 56 L 160 56 L 160 48 L 152 48 z M 152 56 L 152 64 L 160 64 L 160 56 L 152 56 z M 152 112 L 152 120 L 160 120 L 160 112 L 152 112 z M 152 120 L 152 128 L 160 128 L 160 120 L 152 120 z M 152 136 L 152 144 L 160 144 L 160 136 L 152 136 z M 152 152 L 152 160 L 160 160 L 160 152 L 152 152 z M 152 168 L 152 176 L 160 176 L 160 168 L 152 168 z M 152 184 L 152 192 L 160 192 L 160 184 L 152 184 z M 152 192 L 152 200 L 160 200 L 160 192 L 152 192 z M 152 200 L 152 208 L 160 208 L 160 200 L 152 200 z M 160 8 L 160 16 L 168 16 L 168 8 L 160 8 z M 160 56 L 160 64 L 168 64 L 168 56 L 160 56 z M 160 72 L 160 80 L 168 80 L 168 72 L 160 72 z M 160 88 L 160 96 L 168 96 L 168 88 L 160 88 z M 160 104 L 160 112 L 168 112 L 168 104 L 160 104 z M 160 112 L 160 120 L 168 120 L 168 112 L 160 112 z M 160 136 L 160 144 L 168 144 L 168 136 L 160 136 z M 160 168 L 160 176 L 168 176 L 168 168 L 160 168 z M 160 176 L 160 184 L 168 184 L 168 176 L 160 176 z M 160 192 L 160 200 L 168 200 L 168 192 L 160 192 z M 160 200 L 160 208 L 168 208 L 168 200 L 160 200 z M 168 8 L 168 16 L 176 16 L 176 8 L 168 8 z M 168 24 L 168 32 L 176 32 L 176 24 L 168 24 z M 168 32 L 168 40 L 176 40 L 176 32 L 168 32 z M 168 40 L 168 48 L 176 48 L 176 40 L 168 40 z M 168 56 L 168 64 L 176 64 L 176 56 L 168 56 z M 168 72 L 168 80 L 176 80 L 176 72 L 168 72 z M 168 104 L 168 112 L 176 112 L 176 104 L 168 104 z M 168 120 L 168 128 L 176 128 L 176 120 L 168 120 z M 168 128 L 168 136 L 176 136 L 176 128 L 168 128 z M 168 136 L 168 144 L 176 144 L 176 136 L 168 136 z M 168 144 L 168 152 L 176 152 L 176 144 L 168 144 z M 168 152 L 168 160 L 176 160 L 176 152 L 168 152 z M 168 160 L 168 168 L 176 168 L 176 160 L 168 160 z M 168 168 L 168 176 L 176 176 L 176 168 L 168 168 z M 168 184 L 168 192 L 176 192 L 176 184 L 168 184 z M 168 192 L 168 200 L 176 200 L 176 192 L 168 192 z M 168 200 L 168 208 L 176 208 L 176 200 L 168 200 z M 176 8 L 176 16 L 184 16 L 184 8 L 176 8 z M 176 24 L 176 32 L 184 32 L 184 24 L 176 24 z M 176 32 L 176 40 L 184 40 L 184 32 L 176 32 z M 176 40 L 176 48 L 184 48 L 184 40 L 176 40 z M 176 56 L 176 64 L 184 64 L 184 56 L 176 56 z M 176 72 L 176 80 L 184 80 L 184 72 L 176 72 z M 176 88 L 176 96 L 184 96 L 184 88 L 176 88 z M 176 128 L 176 136 L 184 136 L 184 128 L 176 128 z M 176 152 L 176 160 L 184 160 L 184 152 L 176 152 z M 176 168 L 176 176 L 184 176 L 184 168 L 176 168 z M 176 176 L 176 184 L 184 184 L 184 176 L 176 176 z M 176 184 L 176 192 L 184 192 L 184 184 L 176 184 z M 176 192 L 176 200 L 184 200 L 184 192 L 176 192 z M 176 200 L 176 208 L 184 208 L 184 200 L 176 200 z M 184 8 L 184 16 L 192 16 L 192 8 L 184 8 z M 184 24 L 184 32 L 192 32 L 192 24 L 184 24 z M 184 32 L 184 40 L 192 40 L 192 32 L 184 32 z M 184 40 L 184 48 L 192 48 L 192 40 L 184 40 z M 184 56 L 184 64 L 192 64 L 192 56 L 184 56 z M 184 72 L 184 80 L 192 80 L 192 72 L 184 72 z M 184 96 L 184 104 L 192 104 L 192 96 L 184 96 z M 184 104 L 184 112 L 192 112 L 192 104 L 184 104 z M 184 136 L 184 144 L 192 144 L 192 136 L 184 136 z M 184 176 L 184 184 L 192 184 L 192 176 L 184 176 z M 184 184 L 184 192 L 192 192 L 192 184 L 184 184 z M 184 200 L 184 208 L 192 208 L 192 200 L 184 200 z M 192 8 L 192 16 L 200 16 L 200 8 L 192 8 z M 192 56 L 192 64 L 200 64 L 200 56 L 192 56 z M 192 96 L 192 104 L 200 104 L 200 96 L 192 96 z M 192 120 L 192 128 L 200 128 L 200 120 L 192 120 z M 192 128 L 192 136 L 200 136 L 200 128 L 192 128 z M 192 136 L 192 144 L 200 144 L 200 136 L 192 136 z M 192 144 L 192 152 L 200 152 L 200 144 L 192 144 z M 192 160 L 192 168 L 200 168 L 200 160 L 192 160 z M 192 168 L 192 176 L 200 176 L 200 168 L 192 168 z M 192 176 L 192 184 L 200 184 L 200 176 L 192 176 z M 192 200 L 192 208 L 200 208 L 200 200 L 192 200 z M 200 8 L 200 16 L 208 16 L 208 8 L 200 8 z M 200 16 L 200 24 L 208 24 L 208 16 L 200 16 z M 200 24 L 200 32 L 208 32 L 208 24 L 200 24 z M 200 32 L 200 40 L 208 40 L 208 32 L 200 32 z M 200 40 L 200 48 L 208 48 L 208 40 L 200 40 z M 200 48 L 200 56 L 208 56 L 208 48 L 200 48 z M 200 56 L 200 64 L 208 64 L 208 56 L 200 56 z M 200 72 L 200 80 L 208 80 L 208 72 L 200 72 z M 200 88 L 200 96 L 208 96 L 208 88 L 200 88 z M 200 96 L 200 104 L 208 104 L 208 96 L 200 96 z M 200 160 L 200 168 L 208 168 L 208 160 L 200 160 z M 200 168 L 200 176 L 208 176 L 208 168 L 200 168 z M 200 176 L 200 184 L 208 184 L 208 176 L 200 176 z M 200 184 L 200 192 L 208 192 L 208 184 L 200 184 z M 200 192 L 200 200 L 208 200 L 208 192 L 200 192 z M 200 200 L 200 208 L 208 208 L 208 200 L 200 200 z" fill="#000000"/></svg>